<?xml version="1.0" standalone="no"?>
<!DOCTYPE svg PUBLIC "-//W3C//DTD SVG 20010904//EN"
 "http://www.w3.org/TR/2001/REC-SVG-20010904/DTD/svg10.dtd">
<svg version="1.0" xmlns="http://www.w3.org/2000/svg"
 width="500.000000pt" height="500.000000pt" viewBox="0 0 500.000000 500.000000"
 preserveAspectRatio="xMidYMid meet">

<g transform="translate(0.000000,500.000000) scale(0.100000,-0.100000)"
fill="#b10921" stroke="none">
<path d="M2445 4521 c-22 -10 -47 -26 -55 -35 -8 -10 -145 -279 -305 -599
l-290 -582 -635 -92 c-362 -52 -649 -99 -668 -107 -59 -29 -94 -114 -72 -180
10 -31 329 -351 872 -877 l77 -74 -109 -630 c-60 -346 -110 -640 -110 -653 0
-37 37 -98 73 -121 22 -14 51 -21 82 -21 43 0 85 19 384 176 185 98 443 233
574 302 l238 125 47 -25 c26 -14 284 -150 573 -302 476 -250 530 -276 574
-276 31 0 59 7 82 21 36 23 73 84 73 121 0 13 -50 307 -110 653 l-109 630 67
65 c561 542 872 855 882 886 22 64 -12 149 -69 179 -25 13 -770 128 -1216 188
l-90 12 -290 582 c-159 320 -296 588 -303 596 -15 18 -96 57 -114 56 -7 0 -31
-8 -53 -18z"/>
</g>
</svg>
