<?xml version="1.0" standalone="no"?>
<!DOCTYPE svg PUBLIC "-//W3C//DTD SVG 20010904//EN"
 "http://www.w3.org/TR/2001/REC-SVG-20010904/DTD/svg10.dtd">
<svg version="1.0" xmlns="http://www.w3.org/2000/svg"
 width="512.000000pt" height="512.000000pt" viewBox="0 0 512.000000 512.000000"
 preserveAspectRatio="xMidYMid meet">

<g transform="translate(0.000000,512.000000) scale(0.100000,-0.100000)"
fill="#b10921" stroke="none">
<path d="M2513 4629 c-17 -5 -44 -22 -60 -38 -16 -17 -147 -271 -312 -607
-157 -319 -289 -584 -295 -591 -6 -6 -288 -51 -646 -103 -349 -50 -654 -98
-678 -106 -79 -29 -118 -135 -78 -212 8 -15 226 -234 485 -486 259 -252 471
-463 471 -469 0 -6 -50 -301 -111 -656 -72 -420 -108 -657 -104 -678 13 -72
98 -132 171 -120 19 3 294 142 611 309 317 167 582 304 588 306 6 1 272 -135
592 -303 320 -168 598 -309 617 -312 73 -12 158 47 171 120 4 21 -32 258 -104
678 -61 355 -111 650 -111 656 0 6 212 217 471 469 259 252 477 471 485 486
40 77 1 183 -78 212 -24 8 -326 56 -673 106 -346 50 -635 94 -642 98 -12 7
-121 223 -433 858 -145 295 -172 344 -201 362 -42 25 -94 34 -136 21z m497
-1419 c0 -17 62 -91 89 -105 24 -12 773 -128 1044 -162 26 -3 47 -9 47 -12 0
-4 -78 -83 -173 -176 -584 -574 -607 -598 -617 -634 -9 -30 5 -124 81 -569 50
-293 89 -535 87 -538 -3 -2 -216 107 -474 242 -258 136 -484 251 -501 256
l-33 9 0 1302 0 1302 225 -454 c124 -249 225 -457 225 -461z"/>
</g>
</svg>
