<?xml version="1.0" encoding="UTF-8"?><svg id="_Слой_9" xmlns="http://www.w3.org/2000/svg" viewBox="0 0 110 110"><defs><style>.cls-1,.cls-2{fill:#fff;}.cls-2{stroke:#001e3e;stroke-miterlimit:10;}</style></defs><path class="cls-1" d="m2.52,61.84h71.33v-30.06H2.52v30.06Zm106.02,4.63c.09.73.13,1.5.13,2.32h-4.56c.02-.22.04-.44.04-.67,0-.57-.08-1.12-.23-1.64h4.62Zm-10.46-4.63h-22.14c-.05-14.6-.15-16.49,1.25-20.32,4.73,0,9.1-.09,14.67,5.48,2.89,0,2.96.23,3.88,1.73h-.87c.89,1.61,2.62,4.97,2.62,4.97,7.8,1.24,8.28,4.01,8.28,4.01l.92,4.11c.65.75,1.1,1.61,1.4,2.58h-5.2c-1.1-1.49-2.85-2.47-4.83-2.54v-.02h0Zm-15.21-17.31c-1.35-.26-2.6-.36-3.62-.39,0,.02-.02.05-.02.08-.02,1.43-.11,2.56,1.11,2.56h2.65c1.02,0,.55-.96-.13-2.25Zm9.43,5.18h-4.45s0,1.82,0,2.56c0,1.93,4.11,1.71,7.09,2.46l-2.64-5.02Zm11.43,13.23h1.89c-.55-.79-.96-1.51-2.2-1.51-1.32,0,.31,1.51.31,1.51Zm-5.86.97c2.32,0,4.2,1.88,4.2,4.2s-1.88,4.2-4.2,4.2-4.2-1.88-4.2-4.2,1.88-4.2,4.2-4.2Zm0,5.91c.94,0,1.71-.77,1.71-1.72s-.77-1.71-1.71-1.71-1.72.77-1.72,1.71c0,.95.77,1.72,1.72,1.72Zm-4.63-5.92c-1.01,1.11-1.63,2.58-1.63,4.2,0,.22.01.44.04.66h-17.23c.02-.22.04-.44.04-.66,0-1.62-.62-3.09-1.63-4.2,0,0,20.42,0,20.42,0Zm-68.38,0c-1.01,1.11-1.63,2.58-1.63,4.2,0,.22.01.44.04.66h-1.38c.02-.22.04-.44.04-.66,0-1.62-.62-3.09-1.63-4.2h4.57Zm-16.39,0h2.55c-1.01,1.11-1.63,2.58-1.63,4.2,0,.22.01.44.04.66h-2.07c-.02-.22-.03-.44-.03-.66,0-1.53.42-2.97,1.15-4.2Zm7.19,0c2.32,0,4.2,1.88,4.2,4.2s-1.88,4.2-4.2,4.2-4.2-1.88-4.2-4.2c0-2.32,1.88-4.2,4.2-4.2Zm0,5.91c.95,0,1.71-.77,1.71-1.72s-.77-1.71-1.71-1.71-1.72.77-1.72,1.71c0,.95.77,1.72,1.72,1.72Zm65.04-5.92c-2.74,1.11-4.44,2.58-4.44,4.2,0,.22.04.44.1.66H29.55c.06-.22.1-.44.1-.66,0-1.62-1.69-3.09-4.44-4.2,0,0,55.48,0,55.48,0Zm-39.98,0c-1.01,1.11-1.63,2.58-1.63,4.2,0,.22.01.44.04.66h-17.23c.02-.22.04-.44.04-.66,0-1.62-.62-3.09-1.63-4.2,0,0,20.42,0,20.42,0Z"/><path class="cls-2" d="m75.76,63.73s-.08,0-.12,0c-.16,0-.32.03-.47.06,0,0,0,0,0,0,0,.72-.15,1.39-.45,2-.36.73-.92,1.31-1.6,1.65-.1.05-.21.09-.33.13v.3c.05.18.12.35.2.52.22.46.59.89,1.11,1.15.21.11.45.16.65.16,0,0,0,0,.01,0,.52-.02.81-.19,1.1-.33.82-.44,1.58-1,2.83-1,.2,0,.41.01.63.05.58.09,1.11-.31,1.2-.89.09-.58-.31-1.11-.89-1.2-.33-.05-.65-.07-.95-.07-1.28,0-2.29.42-3,.79-.33.18-.61.34-.8.45,0,0,0-.02-.01-.03-.03-.06-.06-.14-.08-.24l.27-.17c.14-.08.31-.18.49-.27,1.04-.55,2.07-.82,3.12-.82.34,0,.67.03,1,.08.35.05.64.23.84.49.34.15.63.31.9.46.04.02.09.05.13.07l.27.17c-.02.09-.05.17-.08.23,0,0,0,.02-.01.03-.12-.06-.27-.15-.44-.25-.16-.09-.33-.19-.53-.28.06.19.08.4.05.61-.1.64-.64,1.12-1.28,1.14.35.15.66.33.97.51.18.1.36.2.56.29.21.09.45.18.8.19h0c.2,0,.44-.05.65-.16.52-.26.88-.69,1.11-1.15.23-.46.33-.96.33-1.46,0-.74-.22-1.52-.76-2.16-.5-.6-1.3-1.02-2.23-1.06-.04,0-.08,0-.12,0h-5.09Z"/><path class="cls-2" d="m81.87,72.73v-2.73s0,0,0,0h-.01c-.39,0-.67-.11-.91-.21-.23-.1-.42-.21-.59-.31l-.07-.04c-.32-.18-.65-.37-1.02-.52-.16-.06-.29-.15-.41-.26-.06,0-.12,0-.18,0-1,0-1.65.38-2.35.77-.12.07-.23.13-.35.19l-.1.05c-.27.13-.6.3-1.13.32h-.02s0,0,0,0v2.73l-.88,10.82.21,2.55c.04.48-.06.93-.25,1.34.26.46.73.78,1.29.83.9.07,1.68-.59,1.76-1.49l.98-12.01h.92l.98,12.01c.07.9.86,1.56,1.76,1.49.9-.07,1.56-.86,1.49-1.76l-1.12-13.78Z"/><circle class="cls-2" cx="78.3" cy="60.01" r="2.97"/><path class="cls-2" d="m73.31,86.17l-1.29-15.76v-3.12s0,0,0,0h-.01c-.45,0-.77-.13-1.04-.24-.26-.12-.48-.24-.68-.35l-.08-.04c-.37-.21-.75-.43-1.16-.59-.18-.07-.33-.17-.47-.29-.07,0-.13,0-.2,0-1.14,0-1.89.43-2.68.88-.13.08-.26.15-.4.22l-.11.06c-.3.15-.68.34-1.29.36h-.02s0,0,0,0v3.12l-.82,10.06.42,5.19c.06.68-.12,1.32-.46,1.85.31.37.76.62,1.27.66,1.03.08,1.92-.68,2.01-1.71l1.12-13.73h1.06l1.12,13.73c.08,1.03.98,1.79,2.01,1.71,1.03-.08,1.79-.98,1.71-2.01Z"/><circle class="cls-2" cx="67.95" cy="55.86" r="3.39"/><path class="cls-2" d="m64.23,62.18c-.42.85-1.06,1.51-1.86,1.91-.12.06-.25.11-.38.16v1.45c.26.43.64.82,1.14,1.08.24.12.51.18.75.18,0,0,0,0,.01,0,.59-.02.93-.22,1.25-.38.93-.51,1.81-1.14,3.24-1.14.23,0,.47.02.73.06.66.1,1.27-.35,1.37-1.01.1-.66-.35-1.27-1.01-1.37-.38-.06-.74-.08-1.08-.08-1.47,0-2.62.47-3.43.9-.38.2-.7.39-.91.51,0-.01-.01-.02-.02-.03-.04-.07-.07-.17-.09-.27l.3-.19c.16-.09.35-.2.56-.31,1.19-.63,2.36-.94,3.57-.94.38,0,.77.03,1.15.09.4.06.73.27.97.56.39.17.72.35,1.03.53.05.03.1.06.14.08l.3.19c-.02.1-.05.2-.09.27,0,.01-.01.02-.02.03-.13-.07-.31-.17-.5-.28-.18-.1-.38-.21-.61-.32.07.22.1.46.06.7-.11.73-.73,1.28-1.46,1.31.4.17.75.38,1.11.58.2.12.41.23.64.33.24.1.52.21.91.21h0c.23,0,.51-.05.75-.18.59-.3,1.01-.79,1.27-1.31.26-.53.37-1.09.38-1.67,0-.85-.26-1.73-.87-2.47-.57-.69-1.49-1.17-2.55-1.21-.04,0-.09,0-.13,0h-5.82s-.09,0-.13,0c-.05,0-.11,0-.16.01-.03.73-.21,1.42-.52,2.05Z"/><path class="cls-2" d="m38.76,86.11l.21-2.55-.88-10.82v-2.73s0,0,0,0h-.02c-.53-.02-.86-.18-1.13-.32l-.1-.05c-.12-.06-.23-.13-.35-.19-.69-.39-1.35-.77-2.35-.77-.06,0-.12,0-.18,0-.12.11-.25.19-.41.26-.36.14-.69.33-1.02.52l-.07.04c-.17.1-.36.21-.59.31-.23.1-.51.2-.91.21h-.01s0,0,0,0v2.73l-1.12,13.79c-.07.9.6,1.68,1.49,1.76.9.07,1.68-.59,1.76-1.49l.98-12.01h.92l.98,12.01c.07.9.86,1.56,1.76,1.49.56-.05,1.03-.37,1.29-.83-.19-.4-.29-.86-.25-1.34Z"/><circle class="cls-2" cx="34.52" cy="60.01" r="2.97"/><path class="cls-2" d="m28.87,66.95c0,.5.1,1,.33,1.46.22.46.59.89,1.11,1.15.21.11.45.16.65.16h0c.34,0,.59-.1.8-.19.21-.09.39-.19.56-.29.31-.18.62-.36.97-.51-.64-.02-1.18-.51-1.28-1.14-.03-.21-.01-.42.05-.61-.2.1-.37.2-.53.28-.17.1-.32.19-.44.25,0,0,0-.02-.01-.03-.03-.06-.06-.14-.08-.24l.27-.17s.08-.05.13-.07c.27-.15.57-.31.91-.46.2-.25.5-.43.84-.49.33-.05.67-.08,1-.08,1.06,0,2.08.27,3.12.82.18.1.35.19.49.27l.27.17c-.02.09-.05.17-.08.24,0,0,0,.02-.01.03-.19-.1-.46-.27-.8-.45-.7-.37-1.71-.79-3-.79-.3,0-.62.02-.95.07-.58.09-.97.62-.89,1.2.09.58.62.97,1.2.89.23-.03.44-.05.63-.05,1.25,0,2.02.56,2.83,1,.28.14.58.32,1.1.33,0,0,0,0,.01,0,.2,0,.44-.05.65-.16.52-.26.88-.69,1.11-1.15.08-.17.15-.34.2-.52v-.3c-.11-.04-.22-.08-.33-.13-.69-.35-1.24-.92-1.6-1.65-.3-.61-.45-1.28-.45-2,0,0,0,0,0,0-.15-.03-.31-.05-.47-.06-.04,0-.08,0-.12,0h-5.09s-.08,0-.12,0c-.92.04-1.73.46-2.23,1.06-.54.64-.76,1.42-.76,2.16Z"/><path class="cls-2" d="m49.34,85.67l.42-5.19-.82-10.06v-3.12s0,0,0,0h-.02c-.6-.02-.98-.21-1.29-.36l-.11-.06c-.13-.07-.26-.15-.4-.22-.79-.45-1.54-.88-2.68-.88-.07,0-.13,0-.2,0-.13.12-.29.22-.47.29-.42.16-.79.38-1.16.59l-.08.04c-.19.11-.42.24-.68.35-.27.11-.59.23-1.04.24h-.01s0,0,0,0v3.12l-1.29,15.76c-.08,1.03.68,1.92,1.71,2.01,1.03.08,1.93-.68,2.01-1.71l1.12-13.73h1.06l1.12,13.73c.08,1.03.98,1.79,2.01,1.71.52-.04.97-.29,1.27-.66-.34-.53-.51-1.18-.46-1.85Z"/><circle class="cls-2" cx="44.87" cy="55.86" r="3.39"/><path class="cls-2" d="m38.41,63.8c0,.58.12,1.14.38,1.67.26.52.67,1.01,1.27,1.31.24.12.51.18.75.18h0c.39,0,.67-.11.91-.21.24-.1.44-.22.64-.33.35-.2.71-.41,1.11-.58-.73-.03-1.35-.58-1.46-1.31-.04-.24-.01-.48.06-.7-.22.11-.43.22-.61.32-.2.11-.37.21-.5.28,0,0-.01-.02-.02-.03-.04-.07-.07-.16-.09-.27l.3-.19s.09-.05.14-.08c.31-.17.65-.36,1.03-.53.23-.29.57-.5.97-.56.38-.06.76-.09,1.14-.09,1.21,0,2.37.31,3.57.94.21.11.4.22.56.31l.3.19c-.02.1-.05.2-.09.27,0,.01-.01.02-.02.03-.22-.12-.53-.31-.91-.51-.8-.43-1.96-.9-3.43-.9-.35,0-.71.03-1.08.08-.66.1-1.11.71-1.01,1.37.1.66.71,1.11,1.37,1.01.26-.04.5-.06.73-.06,1.43,0,2.31.64,3.24,1.14.32.16.66.36,1.25.38,0,0,0,0,.01,0,.23,0,.5-.05.75-.18.5-.25.88-.65,1.14-1.08v-1.45c-.13-.04-.26-.1-.38-.16-.79-.4-1.44-1.06-1.85-1.91-.31-.63-.48-1.32-.52-2.05-.05,0-.11,0-.16-.01-.04,0-.09,0-.13,0h-5.82s-.09,0-.13,0c-1.06.05-1.98.52-2.55,1.21-.61.73-.87,1.62-.87,2.47Z"/><path class="cls-2" d="m62.61,85.74l-1.49-18.22v-3.61s0,0,0,0h-.02c-.52,0-.89-.15-1.2-.28-.3-.13-.56-.28-.78-.41l-.09-.05c-.42-.24-.86-.49-1.34-.68-.21-.08-.39-.2-.54-.34-.08,0-.15,0-.23,0-1.32,0-2.19.5-3.1,1.02-.15.09-.31.17-.46.26l-.13.07c-.35.18-.79.4-1.49.42h-.03s0,0,0,0v3.61l-1.49,18.23c-.1,1.19.79,2.23,1.97,2.32,1.19.1,2.23-.79,2.32-1.97l1.29-15.87h1.22l1.29,15.87c.1,1.19,1.14,2.07,2.32,1.97,1.19-.1,2.07-1.14,1.97-2.32Z"/><circle class="cls-2" cx="56.41" cy="50.69" r="3.92"/><path class="cls-2" d="m48.94,59.87c0,.66.14,1.32.43,1.93.3.6.78,1.17,1.47,1.52.28.14.59.21.86.21,0,0,0,0,.01,0,.69-.02,1.08-.26,1.45-.44,1.08-.59,2.09-1.32,3.75-1.32.26,0,.54.02.84.06.76.11,1.47-.41,1.59-1.17.11-.76-.41-1.47-1.17-1.59-.44-.07-.85-.1-1.25-.1-1.7,0-3.03.55-3.96,1.04-.44.23-.8.45-1.06.59,0-.01-.01-.02-.02-.04-.04-.08-.08-.19-.11-.31l.35-.22c.19-.11.41-.23.65-.36,1.38-.73,2.73-1.09,4.13-1.09.44,0,.88.03,1.32.1.46.07.85.31,1.12.64.45.2.84.41,1.2.61.06.03.11.06.17.09l.35.22c-.03.12-.06.23-.11.31,0,.01-.01.02-.02.04-.15-.08-.35-.2-.58-.33-.21-.12-.44-.25-.7-.37.08.25.11.53.07.81-.13.84-.85,1.48-1.69,1.51.46.2.87.44,1.28.67.24.13.47.27.75.39.27.12.6.24,1.05.25h.01c.27,0,.58-.06.86-.21.69-.35,1.17-.92,1.47-1.52.3-.61.43-1.27.43-1.93,0-.98-.3-2.01-1.01-2.85-.66-.8-1.72-1.35-2.95-1.4-.05,0-.1,0-.15,0h-6.73c-.05,0-.1,0-.15,0-1.22.05-2.29.6-2.95,1.4-.71.85-1,1.87-1.01,2.85Z"/></svg>