<?xml version="1.0" encoding="UTF-8"?><svg id="_Слой_9" xmlns="http://www.w3.org/2000/svg" viewBox="0 0 110 110"><defs><style>.cls-1,.cls-2{fill:#fff;}.cls-2{stroke:#001e3e;stroke-miterlimit:10;}</style></defs><path class="cls-1" d="m107.22,56.01s-3.27-8.22-5.11-12.75c-1.19-2.72-3.26-5.75-8.43-5.75h-10.23c-2.11,0-3.25.92-3.25,3v21.61l27.02.05v-6.15Zm-8.54-2.77l-3.67-3.4c-.79-.69-1.44-1.3-3.87-1.3h-7.2v-7.28h9.74c2.88,0,4.01,1.27,4.98,3.46.98,2.42,2.35,5.85,3.42,8.53h-3.41Zm-63.54,19.1s0,0,0,0h-.02s0,0,.01,0Zm57.86-6.25c-3.41,0-6.18,2.77-6.18,6.18s2.77,6.17,6.18,6.17,6.18-2.77,6.18-6.17-2.77-6.18-6.18-6.18Zm0,9.26c-1.71,0-3.1-1.38-3.1-3.08s1.39-3.09,3.1-3.09,3.09,1.38,3.09,3.09-1.39,3.08-3.09,3.08Zm-9.06-3.08c0,.22.02.44.03.65h-19.09c.02-.22.03-.43.03-.65,0-2.92-1.4-5.52-3.55-7.18h26.14c-2.16,1.65-3.56,4.26-3.56,7.18Zm19.32.65h-1.24c.01-.21.03-.44.03-.65,0-2.93-1.4-5.53-3.57-7.18h8.95c0,4.59.39,7.84-4.18,7.84Zm-81.19-6.83h-.01c-3.41,0-6.18,2.77-6.18,6.18s2.77,6.17,6.18,6.17h.01c3.41,0,6.18-2.77,6.18-6.17,0-3.42-2.77-6.18-6.18-6.18Zm-3.09,6.18c0-1.71,1.38-3.09,3.09-3.09,1.7,0,3.09,1.38,3.09,3.09s-1.38,3.08-3.09,3.08c-1.71,0-3.09-1.38-3.09-3.08Zm-5.97,0c0,.22.02.44.03.65h-1.24c-4.75,0-4.17-3.24-4.17-7.84h8.95c-2.16,1.65-3.57,4.26-3.57,7.18Zm53.3,0c0,.22.02.44.03.65h-19.09c.02-.22.03-.43.03-.65,0-2.92-1.4-5.52-3.55-7.18h26.14c-2.16,1.65-3.56,4.26-3.56,7.18Zm-16.19,0c0,.22.02.44.03.65h-19.09c.02-.22.03-.43.03-.65,0-2.92-1.4-5.52-3.55-7.18h26.14c-2.16,1.65-3.56,4.26-3.56,7.18Zm-37.98,0c0,.22.03.44.04.65h-1.54c-5.9,0-5.18-3.24-5.18-7.84h11.12c-2.69,1.65-4.43,4.26-4.43,7.18Zm65.83-10.11H3.04V27.52h74.93v34.64Z"/><path class="cls-2" d="m75.34,87.72l-1.41-17.28v-3.42h-.01c-.49,0-.84-.14-1.14-.26-.29-.13-.53-.26-.74-.39l-.09-.05c-.4-.23-.82-.47-1.27-.65-.19-.08-.37-.19-.51-.32h-.22c-1.25,0-2.07.47-2.94.97-.14.08-.29.16-.43.24l-.13.06c-.33.17-.75.38-1.41.4h-.02v3.42l-.9,11.03.46,5.69c.06.74-.13,1.45-.5,2.03.34.4.83.68,1.4.72,1.12.09,2.11-.74,2.2-1.87l1.23-15.04h1.16l1.23,15.04c.09,1.12,1.08,1.96,2.2,1.87,1.12-.09,1.96-1.08,1.87-2.2h-.03Z"/><circle class="cls-2" cx="69.46" cy="54.5" r="3.72"/><path class="cls-2" d="m65.38,61.42c-.46.93-1.16,1.66-2.03,2.1-.13.07-.27.12-.42.17v1.59c.28.47.7.9,1.25,1.18.27.14.56.19.82.19h.01c.65-.02,1.02-.24,1.37-.42,1.02-.56,1.99-1.25,3.55-1.25.25,0,.51.02.8.06.72.11,1.39-.39,1.5-1.11s-.39-1.39-1.11-1.5c-.41-.06-.81-.09-1.19-.09-1.61,0-2.87.52-3.76.99-.42.22-.76.43-1,.56,0,0-.01-.02-.02-.03-.04-.08-.08-.18-.1-.3l.33-.21c.18-.1.39-.22.62-.34,1.31-.69,2.59-1.03,3.91-1.03.42,0,.84.03,1.26.09.43.07.8.29,1.06.61.42.19.79.39,1.13.58.05.03.11.06.16.09l.33.21c-.02.11-.06.21-.1.29,0,0-.01.02-.02.03-.15-.08-.34-.19-.55-.31-.2-.11-.42-.23-.66-.36.08.24.11.5.07.77-.12.8-.8,1.4-1.6,1.43.43.19.83.41,1.21.64.22.13.45.25.71.37.26.11.57.23,1,.23h.01c.26,0,.55-.06.82-.19.65-.33,1.11-.87,1.39-1.44.28-.58.41-1.2.41-1.83,0-.93-.28-1.9-.95-2.7-.62-.76-1.63-1.28-2.79-1.33h-6.68c-.06,0-.12,0-.18,0-.04.8-.23,1.56-.57,2.25h0Z"/><path class="cls-2" d="m49.06,87.17l.46-5.69-.9-11.03v-3.42h-.02c-.66-.02-1.08-.23-1.41-.4l-.13-.06c-.15-.08-.29-.16-.44-.24-.87-.49-1.69-.96-2.94-.97h-.22c-.15.13-.32.24-.51.32-.46.18-.87.42-1.27.65l-.09.05c-.21.12-.46.26-.74.39-.29.12-.64.26-1.14.26h0v3.42l-1.41,17.28c-.09,1.12.75,2.11,1.87,2.2s2.11-.74,2.2-1.87l1.23-15.04h1.16l1.23,15.04c.09,1.12,1.08,1.96,2.2,1.87.57-.05,1.06-.32,1.4-.72-.37-.59-.56-1.29-.5-2.03h-.02Z"/><circle class="cls-2" cx="44.16" cy="54.5" r="3.72"/><path class="cls-2" d="m37.08,63.2c0,.63.13,1.25.41,1.83.28.57.74,1.11,1.39,1.44.27.14.56.19.82.19h0c.43,0,.74-.12,1-.23s.48-.24.71-.37c.39-.22.78-.45,1.21-.64-.8-.03-1.48-.63-1.6-1.43-.04-.27,0-.53.07-.77-.25.12-.47.24-.66.36-.22.12-.41.23-.55.31,0,0,0-.02-.02-.03-.04-.08-.08-.18-.1-.29l.33-.21s.1-.06.16-.09c.34-.19.71-.39,1.13-.58.26-.32.63-.54,1.06-.61.42-.06.83-.09,1.26-.09,1.32,0,2.6.34,3.91,1.03.23.12.44.24.62.34l.33.21c-.02.11-.06.22-.1.29,0,0,0,.02-.02.03-.24-.13-.58-.34-1-.56-.88-.47-2.15-.99-3.76-.99-.38,0-.77.03-1.19.09-.72.11-1.22.78-1.11,1.5s.78,1.22,1.5,1.11c.28-.04.55-.06.8-.06,1.57,0,2.53.7,3.55,1.25.35.17.72.4,1.37.42h0c.25,0,.55-.06.82-.19.55-.28.96-.71,1.25-1.18v-1.59c-.15-.05-.29-.1-.42-.17-.87-.44-1.57-1.16-2.03-2.09-.34-.69-.53-1.44-.57-2.25-.06,0-.12,0-.18,0h-6.68c-1.16.05-2.17.57-2.79,1.33-.67.8-.95,1.77-.95,2.7h.01Z"/><path class="cls-2" d="m63.61,87.24l-1.63-19.98v-3.96h-.02c-.57,0-.98-.16-1.31-.3-.33-.15-.61-.31-.86-.45l-.1-.06c-.47-.27-.95-.54-1.47-.75-.23-.09-.42-.22-.59-.37h-.25c-1.44,0-2.4.55-3.4,1.12-.17.1-.34.19-.5.28l-.15.07c-.39.19-.87.44-1.63.46h-.03v3.95l-1.63,19.98c-.11,1.3.86,2.44,2.16,2.55s2.44-.86,2.55-2.16l1.42-17.4h1.34l1.42,17.4c.11,1.3,1.25,2.27,2.55,2.16,1.3-.11,2.27-1.25,2.16-2.55h-.03Z"/><circle class="cls-2" cx="56.81" cy="48.83" r="4.3"/><path class="cls-2" d="m48.62,58.89c0,.73.15,1.45.48,2.12.32.66.85,1.28,1.61,1.66.31.16.65.23.95.23h.02c.75-.02,1.18-.28,1.59-.48,1.18-.64,2.3-1.44,4.11-1.45.29,0,.59.02.92.07.83.13,1.61-.45,1.74-1.28.13-.84-.45-1.61-1.28-1.74-.48-.07-.94-.1-1.37-.1-1.86,0-3.32.6-4.34,1.14-.49.26-.88.5-1.16.65,0,0,0-.03-.02-.04-.05-.09-.09-.21-.12-.34l.39-.24c.2-.12.45-.25.71-.39,1.51-.8,2.99-1.19,4.52-1.19.49,0,.97.04,1.45.11.5.08.93.34,1.22.71.49.22.92.45,1.31.67.06.04.12.07.18.1l.39.24c-.03.13-.07.25-.12.34,0,0,0,.03-.02.04-.17-.09-.39-.22-.64-.36-.23-.13-.48-.27-.77-.41.09.28.12.58.08.89-.14.92-.93,1.62-1.85,1.66.5.22.96.48,1.4.73.26.15.52.29.82.42.3.13.66.26,1.15.27h0c.3,0,.64-.07.95-.22.75-.38,1.28-1,1.61-1.66.33-.67.47-1.39.48-2.12,0-1.07-.33-2.2-1.1-3.13-.72-.87-1.89-1.48-3.23-1.54-.06,0-.11,0-.17,0h-7.38c-.06,0-.11,0-.17,0-1.34.06-2.51.66-3.23,1.54-.78.93-1.1,2.05-1.1,3.13l-.02-.03Z"/><path class="cls-1" d="m80.2,27.53v7.36h10.33c2.06,0,3.88.03,5.56.12-6.28-5.31-10.14-7.48-15.87-7.48h-.02Z"/><path class="cls-1" d="m80.2,40.91v-3.35h4.36c.87,0,1.64-.01,2.35-.05-2.65,2.42-4.28,3.41-6.71,3.41h0Z"/></svg>