<?xml version="1.0" encoding="UTF-8"?><svg id="_Слой_9" xmlns="http://www.w3.org/2000/svg" viewBox="0 0 110 110"><defs><style>.cls-1,.cls-2{fill:#fff;}.cls-2{stroke:#001e3e;stroke-miterlimit:10;}</style></defs><path class="cls-1" d="m67.11,30.21v7.17h6.15c1.23,0,2.31.03,3.31.11-3.74-5.18-6.04-7.29-9.45-7.29h-.01Zm6.14,9.94h-6.15v26.83h15.89c1.5-1.27,3.43-2.03,5.54-2.03,1.91,0,3.67.63,5.1,1.69l2.87-1.76h7.21c-.03-3.02-.46-5.36-3.53-7.17-3.21-1.89-7.07-4.16-7.07-4.16,0,0-7.03-7.5-8.18-8.68-4.03-4.09-5.86-4.72-11.67-4.72h0Zm23.94,18.55l1.43.84c1.69.99,2.01,1.56,2.22,2.96h-4.7s-.1-1.77,1.04-3.8h.01Zm-26.49-14.93h4.2c4.05,0,5.26,1.51,6.77,2.96.97.94,2.46,2.48,6.94,7.26.83.89.58,2.43-1.1,2.43h-4.91c-3.6,0-4.75-2.27-11.89-2.27v-10.39Zm17.83,35.58c-3.21,0-5.82-2.62-5.82-5.82s2.62-5.82,5.82-5.82,5.82,2.62,5.82,5.82-2.62,5.82-5.82,5.82h0Zm0-3.32c1.38,0,2.5-1.12,2.5-2.5s-1.12-2.5-2.5-2.5-2.5,1.12-2.5,2.5,1.12,2.5,2.5,2.5h0Zm-7.7-6.29h-13.73v4.69h12.89c-.03-.3-.05-.59-.05-.9,0-1.36.33-2.65.89-3.79Zm16.24,4.69h4.27c2.14,0,3.61-1.22,3.61-3.91v-2.44c0-.15,0-.31-.01-.45h-7.66l-1.68,1.02c.96,1.39,1.52,3.06,1.52,4.86,0,.31-.02.6-.05.9v.02Zm-60.5,0h27.71v-4.69h-28.55c.56,1.14.89,2.43.89,3.79,0,.31-.02.6-.05.9h.01Zm-16.24-4.69h-8.06c.27,3.16,2.79,4.69,5.33,4.69h1.88c-.03-.3-.05-.59-.05-.9,0-1.36.33-2.65.89-3.79h.01ZM7.12,29.94v36.98h15.43c1.49-1.24,3.39-1.97,5.48-1.97s3.98.75,5.48,1.97h30.77V29.94H7.12Zm20.94,49.41c-3.21,0-5.87-2.62-5.87-5.82s2.62-5.82,5.82-5.82,5.82,2.62,5.82,5.82-2.56,5.82-5.78,5.82h.01Zm0-3.32c1.36,0,2.46-1.12,2.46-2.5s-1.12-2.5-2.5-2.5-2.5,1.12-2.5,2.5,1.16,2.5,2.55,2.5h-.01Z"/><path class="cls-2" d="m69.2,89.21l-1.45-17.83v-3.52h-.02c-.51,0-.87-.14-1.17-.27-.3-.13-.55-.28-.77-.4l-.09-.05c-.42-.23-.85-.48-1.32-.66-.2-.08-.38-.19-.53-.33h-.22c-1.29,0-2.14.49-3.03,1-.15.08-.3.17-.45.26l-.13.06c-.35.17-.78.39-1.46.41h-.02v3.52l-.93,11.38.48,5.87c.06.77-.13,1.49-.52,2.09.35.42.86.69,1.44.75,1.16.09,2.18-.77,2.27-1.93l1.27-15.53h1.2l1.27,15.53c.09,1.16,1.11,2.02,2.27,1.93,1.16-.09,2.02-1.11,1.93-2.27v-.02Z"/><circle class="cls-2" cx="63.14" cy="54.94" r="3.83"/><path class="cls-2" d="m58.93,62.08c-.47.96-1.2,1.71-2.09,2.17-.13.07-.28.12-.43.17v1.64c.3.49.72.93,1.29,1.22.28.14.58.2.85.2h.01c.67-.02,1.05-.25,1.42-.43,1.05-.57,2.05-1.29,3.67-1.3.26,0,.53.02.82.06.75.11,1.44-.4,1.55-1.14s-.4-1.44-1.14-1.55c-.43-.06-.84-.09-1.23-.09-1.65,0-2.96.54-3.87,1.02-.43.22-.79.44-1.03.57,0-.01-.01-.02-.02-.04-.04-.08-.08-.18-.1-.31l.35-.21c.18-.1.4-.22.63-.35,1.35-.72,2.67-1.06,4.04-1.06.44,0,.87.03,1.3.1.45.07.83.31,1.09.63.44.19.82.4,1.17.59.05.03.11.06.16.09l.35.21c-.03.11-.06.22-.1.31,0,.01-.01.02-.02.03-.15-.08-.35-.19-.57-.32-.2-.11-.43-.23-.68-.37.08.25.11.52.07.8-.12.83-.83,1.45-1.65,1.48.45.19.86.43,1.26.65.23.13.46.27.73.38s.58.23,1.03.23h.01c.27,0,.57-.06.85-.2.67-.34,1.14-.9,1.43-1.48.3-.59.42-1.24.43-1.89,0-.96-.29-1.96-.98-2.79-.64-.78-1.69-1.32-2.88-1.37h-6.9c-.06,0-.12,0-.18.01-.04.83-.23,1.6-.58,2.32h-.02Z"/><path class="cls-2" d="m57.1,88.72l-1.69-20.62v-4.09h-.02c-.58,0-1.01-.16-1.36-.32s-.63-.32-.89-.46l-.1-.06c-.48-.28-.97-.56-1.52-.77-.23-.09-.44-.22-.61-.38-.09,0-.17-.01-.27-.01-1.49,0-2.47.56-3.51,1.15-.17.1-.35.19-.52.29l-.15.07c-.4.2-.89.45-1.69.47h-.03v4.08l-1.69,20.62c-.11,1.34.89,2.51,2.23,2.63s2.51-.89,2.63-2.23l1.46-17.95h1.38l1.46,17.95c.11,1.34,1.29,2.34,2.63,2.23s2.34-1.29,2.23-2.63l.04.02Z"/><circle class="cls-2" cx="50.08" cy="49.07" r="4.43"/><path class="cls-2" d="m41.63,59.46c0,.76.15,1.5.49,2.19.34.68.88,1.33,1.65,1.72.32.16.67.23.97.23h.02c.78-.02,1.22-.29,1.63-.5,1.22-.66,2.37-1.49,4.24-1.5.3,0,.61.02.95.07.86.13,1.67-.46,1.8-1.33.13-.86-.46-1.67-1.33-1.8-.49-.07-.96-.11-1.42-.11-1.92,0-3.43.62-4.48,1.17-.5.27-.91.51-1.2.66,0-.01-.01-.03-.02-.04-.05-.09-.09-.21-.12-.35l.4-.25c.21-.12.46-.27.74-.41,1.56-.83,3.09-1.23,4.67-1.23.5,0,1,.04,1.5.11.52.08.96.35,1.27.73.5.22.95.46,1.35.68.06.04.12.07.18.11l.4.25c-.03.13-.07.26-.12.35,0,.01-.01.03-.02.04-.17-.09-.4-.22-.65-.37-.23-.13-.5-.28-.8-.43.09.29.12.6.08.92-.14.95-.96,1.68-1.91,1.71.52.22.99.49,1.45.76.27.15.53.31.85.44.31.13.67.28,1.2.28h.01c.31,0,.66-.07.98-.23.78-.39,1.32-1.03,1.65-1.72.34-.68.49-1.43.49-2.19,0-1.1-.34-2.27-1.13-3.23-.75-.9-1.95-1.52-3.33-1.58-.06,0-.11-.01-.17-.01h-7.61c-.06,0-.11,0-.17.01-1.38.06-2.58.68-3.33,1.58-.81.96-1.13,2.11-1.13,3.23v.03Z"/></svg>